<svg width="48" height="48" viewBox="0 0 48 48" xmlns="http://www.w3.org/2000/svg"><path d="m36.025281 36.074105a2.1453423 2.1458384.0 013.03566.0l8.259567 8.261477a2.1457769 2.1462731.0 01-3.033514 3.036361l-8.259568-8.261477a2.1453423 2.1458384.0 010-3.036361z" style="fill-rule:evenodd;stroke-width:2.14559031"/><ellipse style="fill:#fff;stroke:#fff;stroke-width:1.0571624;stroke-opacity:1" cx="22.033897" cy="21.830509" rx="19.022266" ry="19.090063"/><path d="m21.999999 40.610548a18.615386 18.615386.0 100-37.2307724 18.615386 18.615386.0 000 37.2307724zm22-18.615388A22 22 0 11.64958463e-7 21.99516 22 22 0 0143.999999 21.99516z" style="fill-rule:evenodd;stroke-width:3.38461494"/><text style="font-style:normal;font-weight:400;font-size:10.6667px;line-height:1.25;font-family:sans-serif;letter-spacing:0;word-spacing:0;fill:#000;fill-opacity:1;stroke:none" x="8.2372885" y="19.728813"><tspan x="8.2372885" y="19.728813" style="font-size:13.3333px">カナ</tspan></text><text style="font-style:normal;font-weight:400;font-size:10.6667px;line-height:1.25;font-family:sans-serif;letter-spacing:0;word-spacing:0;fill:#000;fill-opacity:1;stroke:none" x="8.5084743" y="33.491524"><tspan x="8.5084743" y="33.491524" style="font-size:13.3333px">熟語</tspan></text></svg>