<svg xmlns:dc="http://purl.org/dc/elements/1.1/" xmlns:cc="http://creativecommons.org/ns#" xmlns:rdf="http://www.w3.org/1999/02/22-rdf-syntax-ns#" xmlns:svg="http://www.w3.org/2000/svg" xmlns="http://www.w3.org/2000/svg" xmlns:sodipodi="http://sodipodi.sourceforge.net/DTD/sodipodi-0.dtd" xmlns:inkscape="http://www.inkscape.org/namespaces/inkscape" width="48" height="48" viewBox="0 0 48 48" class="bi bi-search" id="svg6" sodipodi:docname="original.svg" style="fill:currentColor" inkscape:version="0.92.5 (2060ec1f9f, 2020-04-08)" inkscape:export-filename="/home/matsuda/Dropbox/kana-sagashi/src/favicon/original.png" inkscape:export-xdpi="1920" inkscape:export-ydpi="1920"><defs id="defs10" /><sodipodi:namedview pagecolor="#ffffff" bordercolor="#666666" borderopacity="1" objecttolerance="10" gridtolerance="10" guidetolerance="10" inkscape:pageopacity="0" inkscape:pageshadow="2" inkscape:window-width="1920" inkscape:window-height="1022" id="namedview8" showgrid="false" showguides="false" inkscape:zoom="14.75" inkscape:cx="44.542373" inkscape:cy="22.099721" inkscape:window-x="0" inkscape:window-y="0" inkscape:window-maximized="1" inkscape:current-layer="svg6" /><path d="m36.025281 36.074105a2.1453423 2.1458384.0 0 1 3.03566.0l8.259567 8.261477a2.1457769 2.1462731.0 0 1-3.033514 3.036361l-8.259568-8.261477a2.1453423 2.1458384.0 0 1 0-3.036361z" id="path2" inkscape:connector-curvature="0" style="fill-rule:evenodd;stroke-width:2.14559031" /><ellipse style="fill:#fff;stroke:#fff;stroke-width:1.0571624;stroke-opacity:1" id="path12" cx="22.033897" cy="21.830509" rx="19.022266" ry="19.090063" /><path d="m21.999999 40.610548a18.615386 18.615386.0 1 0 0-37.2307724 18.615386 18.615386.0 0 0 0 37.2307724zm22-18.615388A22 22 0 1 1 6.4958463e-8 21.99516 22 22 0 0 1 43.999999 21.99516z" id="path4" inkscape:connector-curvature="0" style="fill-rule:evenodd;stroke-width:3.38461494" /><text style="font-style:normal;font-weight:400;font-size:10.66666698px;line-height:1.25;font-family:sans-serif;letter-spacing:0;word-spacing:0;fill:#000;fill-opacity:1;stroke:none" x="8.2372885" y="19.728813" id="text16"><tspan sodipodi:role="line" id="tspan14" x="8.2372885" y="19.728813" style="font-size:13.33333302px">カナ</tspan></text><text style="font-style:normal;font-weight:400;font-size:10.66666698px;line-height:1.25;font-family:sans-serif;letter-spacing:0;word-spacing:0;fill:#000;fill-opacity:1;stroke:none" x="8.5084743" y="33.491524" id="text20"><tspan sodipodi:role="line" id="tspan18" x="8.5084743" y="33.491524" style="font-size:13.33333302px">熟語</tspan></text></svg>