<svg version="1.0" xmlns="http://www.w3.org/2000/svg" width="960pt" height="960pt" viewBox="0 0 960 960"><g transform="translate(0.000000,960.000000) scale(0.100000,-0.100000)" fill="#000" stroke="none"><path d="M4150 9594c-1281-90-2399-668-3187-1649-384-478-670-1052-824-1653-314-1226-89-2514 622-3562 312-460 708-857 1168-1169 1122-760 2524-963 3816-551 459 146 967 414 1338 704 54 42 101 76 105 76 3 0 396-389 872-863C9008-19 8950 32 9097 7c276-48 534 210 486 486-25 147 26 89-921 1038-611 613-862 871-856 880 4 7 40 54 78 104 39 49 112 151 162 225 939 1389 1004 3196 168 4652-589 1026-1567 1770-2719 2068-343 89-652 130-1030 134-143 2-285 2-315 0zm715-698c718-102 1323-359 1866-793 158-126 419-384 542-534 452-555 726-1192 823-1919 23-169 26-685 6-850-57-462-162-823-354-1220-355-737-935-1328-1668-17e2-555-281-1143-413-1773-397-566 14-1075 141-1572 391-381 192-676 405-975 705-583 585-942 1324-1057 2171-26 194-26 708 0 9e2 99 730 371 1362 825 1920 111 136 368 392 502 501 594 482 1265 760 2028 839 136 14 677 4 807-14z"/><path d="M2754 7733c12-30 19-257 11-367l-7-108-384 4-384 4v-106-105l376 3 375 4-6-49c-15-104-58-291-91-392-46-142-159-367-238-471-110-146-276-296-439-394l-27-17 87-71c49-39 93-75 99-79 24-19 298 223 409 361 197 244 329 569 395 970 11 69 20 128 20 133 0 4 169 7 376 7h376l-6-157c-22-506-69-851-134-983-43-87-61-93-267-85-93 3-195 10-225 14-30 5-56 8-57 7-8-6 22-204 32-215 10-10 69-14 276-15 253-1 266 0 304 21 50 27 97 76 124 130 75 151 128 540 161 1195 5 108 12 202 15 210 4 9-17 25-62 47l-68 34-413-2-413-2 5 43c3 24 8 108 11 188 3 80 8 171 12 203l6 57h-128c-114 0-126-2-121-17z"/><path d="M5597 7628c4-51 8-192 8-313v-220h-455c-250 0-483 3-517 7l-63 8v-113-113l518 1h517l-3-95c-8-257-89-511-222-689-1e2-136-282-287-438-366-30-14-52-28-50-31 3-2 49-38 104-78l98-74 56 35c337 214 545 492 631 848 23 95 49 304 49 394v63l470-4 470-4v106 107l-471-5-472-5 5 299c3 165 9 307 13 317 7 16-3 17-124 17h-132l8-92z"/><path d="M2390 5030v-1e2h-265-265v-70-70h620 620v70 70h-260-260v1e2 1e2h-95-95v-1e2z"/><path d="M3380 4930v-2e2h-140-140v-85-85h141 142l-6-147c-4-82-10-162-14-180l-8-32-1e2 69c-55 38-104 69-110 69-10 0-95-114-95-127 1-4 26-25 58-46 31-22 90-64 130-94 85-64 85-58 22-190-88-185-234-352-419-479-2-1 9-13 25-25 16-12 46-40 66-61l38-40 42 29c74 51 231 209 293 295 33 46 83 129 111 186l50 103 105-104 104-105 53 76 53 75-73 72c-40 40-99 95-132 122l-58 51 16 114c8 63 18 171 22 242l7 127h127 127l6-332c7-350 18-515 43-637 41-2e2 108-281 231-281 57 0 105 26 128 69 22 44 42 143 50 246l6 90-59 58-59 58-7-128c-7-133-17-198-34-215-18-18-49 1-65 40-44 99-57 285-57 805v397h-220-220v2e2 2e2h-90-90v-2e2z"/><path d="M4620 4960v-80h365 365v80 80h-365-365v-80z"/><path d="M5530 4945v-85h205c189 0 205-1 205-17 0-19-27-194-35-230-5-22-9-23-168-25l-162-3-3-82-3-83h151c139 0 150-1 150-18 0-19-57-323-66-354-5-16-22-18-180-18h-175l3-87 3-88 738-3 737-2v90 90h-120-120v280 280h-295c-266 0-295 2-295 16 0 16 26 187 36 232l4 22h350 350v85 85h-655-655v-85zm970-720v-195h-253-253l33 183c19 1e2 36 188 38 195 3 9 56 12 220 12h215v-195z"/><path d="M4480 4605v-85h480 480v85 85h-480-480v-85z"/><path d="M2020 4470v-210h465 465v210 210h-465-465v-210zm758-2 3-88h-301-3e2v83c0 46 3 87 7 90 4 4 137 6 297 5l291-3 3-87z"/><path d="M4610 4240v-80h370 370v80 80h-370-370v-80z"/><path d="M2408 4152l-468-2v-65-65l358-2 357-3-94-47c-64-32-107-48-133-48h-38v-68-69l-182-6c-99-4-221-7-270-7h-89l6-52c4-29 8-64 11-77l5-24 142 7c78 3 195 9 260 13l118 6-3-99-3-99-146-3-146-3 26-70 26-71 151 4c135 4 157 7 2e2 29 27 13 55 35 61 49 8 16 13 70 13 146v122l73 6c39 3 131 8 202 11 72 3 154 8 183 11l52 5v71 71l-62-6c-35-4-150-10-255-13-240-9-247-2-81 82 121 60 254 142 282 173 16 17 14 20-26 53-24 19-47 36-53 39-5 2-220 3-477 1z"/><path d="M4610 3875v-75h370 370v75 75h-370-370v-75z"/><path d="M5650 3175v-475h90 90v60 60h370 370v-55-55h1e2 1e2l-2 468-3 467-557 3-558 2v-475zm920 60V3e3h-370-370v235 235h370 370v-235z"/><path d="M46e2 3145v-445h85 85v60 60h295 295v385 385h-380-380v-445zm590 60v-225l-207 2-208 3-3 223-2 222h210 210v-225z"/><path d="M2136 3161c-55-110-135-228-216-314l-71-76 33-14c18-7 59-24 92-38l59-24 54 60c74 82 174 234 224 339 22 48 39 90 36 92-2 3-42 15-89 28l-85 23-37-76z"/><path d="M3788 3212l-78-27 51-65c81-104 172-238 225-330 26-47 49-87 50-89 4-4 194 59 194 65 0 47-314 475-348 473-9 0-52-13-94-27z"/><path d="M3260 3193c-108-20-103-15-76-75 29-65 102-289 111-341 4-20 12-40 17-43 5-3 49 2 99 12 66 14 89 22 89 34 0 42-145 432-159 429-3-1-40-8-81-16z"/><path d="M2707 3180c-43-4-80-10-82-12-3-2 4-63 14-134 10-71 22-170 26-221l7-91 31 4c18 3 59 8 92 12l60 7-2 85c-2 47-12 141-24 209-22 130-27 152-38 150-3-1-41-5-84-9z"/></g></svg>